<?xml version="1.0" encoding="utf-8"?>
<!-- Generator: Adobe Illustrator 19.1.0, SVG Export Plug-In . SVG Version: 6.00 Build 0)  -->
<svg version="1.1" xmlns="http://www.w3.org/2000/svg" xmlns:xlink="http://www.w3.org/1999/xlink" x="0px" y="0px"
	 viewBox="0 0 250 250" style="enable-background:new 0 0 250 250;" xml:space="preserve">
<style type="text/css">
	.st0{fill:#FDD168;stroke:#FFE7A9;stroke-width:5;stroke-miterlimit:10;}
	.st1{display:none;}
	.st2{display:inline;fill:none;}
	.st3{display:inline;fill:#FFE7A9;}
	.st4{font-family:'Roboto-Light';}
	.st5{font-size:130px;}
	.st6{fill:#FFE7A9;stroke:#FDD168;stroke-miterlimit:10;}
</style>
<g id="Layer_1">
	<ellipse class="st0" cx="132.2" cy="122.4" rx="92.8" ry="88.7"/>
</g>
<g id="Layer_2" class="st1">
	<rect x="93.6" y="71.3" class="st2" width="118.4" height="107.4"/>
	<text transform="matrix(1 0 0 1 93.5859 168.7891)" class="st3 st4 st5">1</text>
</g>
<g id="Layer_3">
	<g>
		<path class="st6" d="M174.5,67.3c-0.8-3.6-3.9-6.9-9.1-10l-2-1.2l-21,23.2h-20.3l-21-23.2l-2,1.2c-5.2,3.1-8.3,6.5-9.1,10
			c-0.7,3.1,0.4,5.1,0.7,5.5l17,17.4l0,0L122,112h19.7l13.9-20.7l0.1,0.1l17.8-18.1l0.4-0.5C174,72.4,175.2,70.4,174.5,67.3z
			 M95.5,69.7c-0.2-0.9,0.4-3.3,4.6-6.2l17.3,19.2l-5.2,4.1L95.5,69.7z M169,69.6l-16.4,16.7l-5.3-4l17.1-18.9
			C168.7,66.5,169.2,68.8,169,69.6z"/>
		<polygon class="st6" points="142.5,115.4 121.7,115.4 104.3,180.9 131.8,204.8 160.2,181.4 		"/>
	</g>
</g>
</svg>
