<?xml version="1.0" encoding="utf-8"?>
<!-- Generator: Adobe Illustrator 19.1.0, SVG Export Plug-In . SVG Version: 6.00 Build 0)  -->
<svg version="1.1" xmlns="http://www.w3.org/2000/svg" xmlns:xlink="http://www.w3.org/1999/xlink" x="0px" y="0px"
	 viewBox="-74 63 100 125" style="enable-background:new -74 63 100 125;" xml:space="preserve">
<style type="text/css">
	.st0{fill:none;}
	.st1{fill:#F3B6AA;stroke:#EE9C8E;stroke-width:2;stroke-miterlimit:10;}
	.st2{display:none;}
	.st3{display:inline;}
</style>
<g id="student">
	<g>
		<path class="st0" d="M-58.3,149.1c4-13.7,11.3-14.1,12.9-14.5c0.2,0,0.4-0.1,0.6-0.1c4.8-4.4,1.5-22.9,1.5-22.9
			c0-28.2,19.1-25.4,19.1-25.4c0.2,0,0.5,0,0.7,0c0.2,0,0.5,0,0.7,0c0,0,19.1-2.8,19.1,25.4c0,0-3.3,18.5,1.5,22.9
			c0.2,0,0.4,0.1,0.6,0.1c1.6,0.4,8.9,0.8,12.9,14.5c0,0.2,0.1,0.3,0.1,0.5c5.1-7.1,8.2-15.8,8.2-25.2c0-23.7-19.3-43-43-43
			s-43,19.3-43,43c0,9.4,3,18.1,8.2,25.2C-58.4,149.5-58.4,149.3-58.3,149.1z"/>
		<path class="st0" d="M-38.6,110.4c-0.1,0-0.2,0.1-0.3,0.1c-0.6,0.5-0.9,2-0.6,3.8c0.2,1.4,0.8,2.5,1.3,3.1
			c0.3,0.3,0.6,0.4,0.8,0.4c0.1,0,0.3-0.1,0.4-0.2c1.3,4.1,3.9,8.3,7.1,10.8c1.9,1.5,4,2.4,6.3,2.4c2.2,0,4.3-0.9,6.2-2.3
			c3.2-2.5,5.8-6.6,7.1-10.8c0.1,0.1,0.2,0.2,0.4,0.2c0.2,0,0.5-0.1,0.7-0.3c0.6-0.5,1.2-1.7,1.4-3.2c0.3-1.9,0-3.6-0.7-3.9
			c-0.1,0-0.1,0-0.2-0.1l-1.6,1.6l-20.1-10.3c-6.6-0.6-7.6,8.2-7.7,8.9c0,0,0,0.1,0,0.1v0C-38.1,110.5-38.3,110.4-38.6,110.4z"/>
		<path class="st0" d="M-10.7,133.6C-10.7,133.6-10.7,133.6-10.7,133.6c-0.7-0.3-3.3-1.4-3.3-4c0,0,0,0,0,0
			c-1.6,1.6-3.5,2.9-5.4,3.7c-1.3,0.5-2.7,0.8-4.1,0.8c-1.4,0-2.8-0.3-4.1-0.8c-2-0.8-3.8-2.1-5.4-3.7c0,0,0,0,0,0
			c0,2-1.5,3.2-2.6,3.7c-0.1,0.1-0.2,0.1-0.3,0.2c-0.3,0.1-0.5,0.2-0.5,0.2v0c0.1,0.5,0.3,1,0.7,1.5c1.7,2.2,6.6,5.4,12.3,5.4
			c5.7,0,10.6-3.2,12.3-5.4C-11,134.6-10.7,134.1-10.7,133.6z"/>
		<path class="st1" d="M-23.6,77.4c-25.9,0-47,21.1-47,47c0,25.9,21.1,47,47,47c25.9,0,47-21.1,47-47C23.4,98.5,2.3,77.4-23.6,77.4z
			 M-23.6,81.4c23.7,0,43,19.3,43,43c0,9.4-3,18.1-8.2,25.2c0-0.2-0.1-0.3-0.1-0.5c-4-13.7-11.3-14.1-12.9-14.5
			c-0.2,0-0.4-0.1-0.6-0.1c-4.8-4.4-1.5-22.9-1.5-22.9c0-28.2-19.1-25.4-19.1-25.4c-0.2,0-0.5,0-0.7,0c-0.2,0-0.5,0-0.7,0
			c0,0-19.1-2.8-19.1,25.4c0,0,3.3,18.5-1.5,22.9c-0.2,0-0.4,0.1-0.6,0.1c-1.6,0.4-8.9,0.8-12.9,14.5c0,0.2-0.1,0.3-0.1,0.5
			c-5.1-7.1-8.2-15.8-8.2-25.2C-66.6,100.7-47.3,81.4-23.6,81.4z M-37.9,110.6c0.1-0.8,1.1-9.5,7.7-8.9l20.1,10.3l1.6-1.6
			c0.1,0,0.1,0,0.2,0.1c0.7,0.3,1,2,0.7,3.9c-0.3,1.5-0.8,2.7-1.4,3.2c-0.2,0.2-0.5,0.3-0.7,0.3c-0.1,0-0.3-0.1-0.4-0.2
			c-1.3,4.2-3.9,8.3-7.1,10.8c-1.9,1.5-4,2.3-6.2,2.3c-2.2,0-4.4-0.9-6.3-2.4c-3.2-2.5-5.8-6.6-7.1-10.8c-0.1,0.1-0.2,0.2-0.4,0.2
			c-0.3,0-0.6-0.1-0.8-0.4c-0.6-0.6-1.1-1.7-1.3-3.1c-0.3-1.8-0.1-3.4,0.6-3.8c0.1-0.1,0.2-0.1,0.3-0.1
			C-38.3,110.4-38.1,110.5-37.9,110.6L-37.9,110.6C-37.9,110.7-37.9,110.6-37.9,110.6z M-23.6,140.5c-5.7,0-10.6-3.2-12.3-5.4
			c-0.4-0.5-0.6-1-0.7-1.5v0c0.1,0,0.3-0.1,0.5-0.2c0.1,0,0.2-0.1,0.3-0.2c1-0.5,2.6-1.7,2.6-3.7c0,0,0,0,0,0
			c1.6,1.6,3.5,2.9,5.4,3.7c1.3,0.5,2.7,0.8,4.1,0.8c1.4,0,2.8-0.3,4.1-0.8c1.9-0.8,3.8-2,5.4-3.7c0,0,0,0,0,0c0,2.6,2.6,3.7,3.3,4
			c0,0,0,0,0,0c-0.1,0.5-0.3,1-0.7,1.5C-13,137.3-17.9,140.5-23.6,140.5z"/>
	</g>
</g>
<g id="contractor" class="st2">
	<g class="st3">
		<g>
			<path class="st0" d="M-36.4,117.1c2.3,5,5.8,8.6,10,9.7c0.5,0.1,0.9,0.2,1.4,0.3c0.5,0.1,1,0.1,1.5,0.1c2.5,0,4.8-0.9,6.9-2.4
				c4.6-3.4,7.8-9.9,8.4-17.7c0.1-0.7,0.2-1.5,0.2-2.2l-2.5,2.9c0.2-0.4,0.2-0.8,0.2-1.3c0-3.5-3.8-9.4-3.8-9.4
				c-8.2,5.9-20.4,0-20.4,0c-0.9,0.3-1.4,1.2-1.8,2.3c-0.7,2-0.6,4.9-0.4,7c0.1,1.5,0.3,2.6,0.3,2.6c-0.9-0.6-1.8-1-2.5-1.1
				C-38.5,111.2-37.7,114.4-36.4,117.1z"/>
			<path class="st0" d="M-38.6,127.1c0,0,0.1,0,0.1,0c0.3,0,0.6-0.1,1-0.1c0,0,0,0.1,0,0.1c0,0.1,0,0.2,0,0.3
				c0.1,0.5,0.2,1.1,0.5,1.6c1.7,4.3,7.2,12.4,10.4,17l0.7-9.6c-0.9-0.5-1.8-1.3-2.3-2.2c-0.4-0.7-0.6-1.4-0.6-2.1
				c0,0,2.4,1.1,4.9,1.1c2.5,0,4.9-1.1,4.9-1.1c0,0.8-0.3,1.6-0.7,2.3c-0.5,0.9-1.3,1.6-2.2,2.1l0.6,9.3c3.4-4.5,9-12,11-16.3
				c0.4-0.7,0.7-1.4,0.7-2.1c0,0,0,0,0,0c0-0.1,0-0.2,0-0.2c0,0,0,0,0,0c0,0,0-0.1,0-0.1c0.7,0.1,1.5,0.2,2.2,0.3
				c10.4,2,18.4,11,18.8,21.9c5.1-7,8-15.7,8-25c0-23.7-19.3-43-43-43s-43,19.3-43,43c0,9.3,3,17.9,8,25
				C-58.1,137.9-49.6,128.7-38.6,127.1z M-41,101.4c1.3-8.9,8.6-15.8,17.5-15.8c8.8,0,16.2,6.8,17.5,15.8c0.1,0.9,0.2,1.9,0.2,2.8
				c0,1-0.1,1.9-0.2,2.8c-1,12.9-8.4,22.9-17.5,22.9c-8.9,0-16.3-9.7-17.4-22.4c0-0.2,0-0.3,0-0.5c-0.1-0.5-0.1-1.1-0.2-1.7
				c0-0.4,0-0.8,0-1.2C-41.2,103.3-41.1,102.4-41,101.4z"/>
			<path class="st1" d="M-23.5,77.2c-25.9,0-47,21.1-47,47c0,25.9,21.1,47,47,47c25.9,0,47-21.1,47-47C23.5,98.3,2.4,77.2-23.5,77.2
				z M-23.5,81.2c23.7,0,43,19.3,43,43c0,9.3-3,17.9-8,25c-0.4-10.9-8.3-19.9-18.8-21.9c-0.7-0.1-1.4-0.2-2.2-0.3c0,0,0,0.1,0,0.1
				c0,0,0,0,0,0c0,0.1,0,0.2,0,0.2c0,0,0,0,0,0c-0.1,0.7-0.3,1.4-0.7,2.1c-2,4.3-7.6,11.8-11,16.3l-0.6-9.3c0.9-0.5,1.7-1.2,2.2-2.1
				c0.4-0.7,0.7-1.5,0.7-2.3c0,0-2.4,1.1-4.9,1.1c-2.5,0-4.9-1.1-4.9-1.1c0,0.7,0.2,1.5,0.6,2.1c0.5,0.9,1.3,1.7,2.3,2.2l-0.7,9.6
				c-3.2-4.6-8.7-12.7-10.4-17c-0.3-0.5-0.4-1-0.5-1.6c0-0.1,0-0.2,0-0.3c0,0,0-0.1,0-0.1c-0.3,0-0.7,0.1-1,0.1c0,0-0.1,0-0.1,0
				c-11,1.5-19.4,10.8-19.8,22.1c-5.1-7-8-15.7-8-25C-66.5,100.5-47.2,81.2-23.5,81.2z"/>
			<path class="st1" d="M-41,107.1c0,0.2,0,0.3,0,0.5c1.1,12.6,8.5,22.4,17.4,22.4c9.1,0,16.5-10,17.5-22.9c0.1-0.9,0.2-1.9,0.2-2.8
				c0-1-0.1-1.9-0.2-2.8c-1.3-8.9-8.6-15.8-17.5-15.8c-8.9,0-16.2,6.8-17.5,15.8c-0.1,0.9-0.2,1.9-0.2,2.8c0,0.4,0,0.8,0,1.2
				C-41.1,106-41.1,106.5-41,107.1z M-36.7,106.3c-0.2-2.1-0.2-4.9,0.4-7c0.4-1.1,0.9-1.9,1.8-2.3c0,0,12.2,5.9,20.4,0
				c0,0,3.7,5.9,3.8,9.4c0,0.5-0.1,1-0.2,1.3l2.5-2.9c0,0.8-0.1,1.5-0.2,2.2c-0.6,7.8-3.9,14.3-8.4,17.7c-2.1,1.5-4.4,2.4-6.9,2.4
				c-0.5,0-1,0-1.5-0.1c-0.5-0.1-0.9-0.2-1.4-0.3c-4.2-1.1-7.8-4.7-10-9.7c-1.3-2.8-2.1-6-2.4-9.4c0.7,0.2,1.5,0.5,2.5,1.1
				C-36.4,108.9-36.6,107.8-36.7,106.3z"/>
		</g>
	</g>
</g>
<g id="Layer_3" class="st2">
	<g class="st3">
		<path d="M-30.6,83.6c0.1,0.1,0.1,0.2,0.2,0.2C-30.3,83.9-30.4,83.8-30.6,83.6z"/>
		<path d="M-21.3,83.4C-21.4,83.5-21.4,83.5-21.3,83.4C-21.4,83.5-21.4,83.5-21.3,83.4z"/>
		<g>
			<path class="st0" d="M-52.8,140c0,0,1.5-2.1,5.2-3.5c0,0,8-2.4,11.6-5c0,0.1,0,0.3,0,0.4c0,0.8,0.1,1.7,0.2,2.6
				c0.4,4,1.4,9.1,1.4,9.1c1.2-2.1,2.4-3.3,3.3-4.1c1.2-1,2.2-1.1,2.9-1c0.7,0.1,1.1,0.5,1.3,0.7c-4.1-4.6-6.5-10.7-6.8-11.5
				c0.1-1.1,0-1.8,0-1.8c0,0,0,0,0,0c-1.2-1.8-2.3-3.7-2.9-5.8c-1.2-1.4-1.8-4.3-1.8-4.3c-1.4-3.9,0.1-4.8,0.5-4.9
				c-1.4-8-0.3-10.8-0.3-10.8c2.1-6.5,9.3-9.6,9.3-9.6c0.9-0.3,1.4-0.2,1.4-0.2l1.1,0.7l1-0.7l1,0.4c0-1.9,2.2-2.2,2.2-2.2
				c1,2.5,3.4,3.5,3.4,3.5c6.3,1.3,8.8,4.7,8.8,4.7c4.1,4.6,2.4,11.8,1.6,14.3c0.5,0.4,1.2,1.6,0.1,4.7c0,0-0.7,3.2-2,4.5
				c-0.8,2.1-1.9,3.6-3.3,5.5c0.1-0.1,0.1,0.5,0.1,0.5c0,0.4,0,0.8,0,1.2c-0.2,0.5-1.9,5.6-6.9,11.7c0.2-0.2,0.7-0.7,1.6-0.8
				c0.8-0.1,1.8,0.2,3,1.3c0.9,0.8,1.9,2,3.1,3.9c0,0,0.9-4.2,1.3-8c0.2-1.3,0.3-2.5,0.3-3.5c0-0.1,0-0.2,0-0.2
				c3.7,2.6,11.4,4.9,11.4,4.9c3.6,1.4,5.2,3.5,5.2,3.5c2.8,4.1,4.3,6.8,5.1,8.9c5.5-7.2,8.8-16.3,8.8-26.1c0-23.7-19.3-43-43-43
				s-43,19.3-43,43c0,9.8,3.3,18.8,8.8,26.1C-57.1,146.8-55.6,144.1-52.8,140z"/>
			<path class="st1" d="M-23.7,75.9c-25.9,0-47,21.1-47,47c0,25.9,21.1,47,47,47s47-21.1,47-47C23.3,96.9,2.2,75.9-23.7,75.9z
				 M-23.7,79.9c23.7,0,43,19.3,43,43c0,9.8-3.3,18.8-8.8,26.1c-0.8-2.1-2.3-4.8-5.1-8.9c0,0-1.5-2.1-5.2-3.5c0,0-7.7-2.3-11.4-4.9
				c0,0.1,0,0.1,0,0.2c0,1-0.1,2.2-0.3,3.5c-0.5,3.8-1.3,8-1.3,8c-1.1-1.9-2.2-3.1-3.1-3.9c-1.2-1.1-2.2-1.3-3-1.3
				c-0.9,0.1-1.4,0.7-1.6,0.8c5-6,6.7-11.2,6.9-11.7c0-0.4,0-0.8,0-1.2c0,0,0-0.5-0.1-0.5c1.4-1.8,2.6-3.3,3.3-5.5
				c1.3-1.3,2-4.5,2-4.5c1.1-3,0.4-4.2-0.1-4.7c0.8-2.6,2.5-9.7-1.6-14.3c0,0-2.5-3.5-8.8-4.7c0,0-2.4-1-3.4-3.5
				c0,0-2.2,0.3-2.2,2.2l-1-0.4l-1,0.7l-1.1-0.7c0,0-0.4-0.1-1.4,0.2c0,0-7.2,3.1-9.3,9.6c0,0-1.2,2.8,0.3,10.8
				c-0.3,0.1-1.9,1-0.5,4.9c0,0,0.6,2.9,1.8,4.3c0.7,2.1,1.7,4.1,2.9,5.8c0,0,0,0,0,0c0,0,0.2,0.8,0,1.8c0.3,0.8,2.6,6.9,6.8,11.5
				c-0.2-0.2-0.7-0.6-1.3-0.7c-0.7-0.1-1.7,0-2.9,1c-1,0.8-2.1,2.1-3.3,4.1c0,0-1-5-1.4-9.1c-0.1-1-0.2-1.9-0.2-2.6
				c0-0.2,0-0.3,0-0.4c-3.6,2.6-11.6,5-11.6,5c-3.6,1.4-5.2,3.5-5.2,3.5c-2.8,4.1-4.3,6.8-5.1,8.9c-5.5-7.2-8.8-16.3-8.8-26.1
				C-66.7,99.1-47.4,79.9-23.7,79.9z"/>
		</g>
	</g>
</g>
</svg>
