<?xml version="1.0" encoding="utf-8"?>
<!-- Generator: Adobe Illustrator 19.1.0, SVG Export Plug-In . SVG Version: 6.00 Build 0)  -->
<svg version="1.1" xmlns="http://www.w3.org/2000/svg" xmlns:xlink="http://www.w3.org/1999/xlink" x="0px" y="0px"
	 viewBox="0 0 250 250" style="enable-background:new 0 0 250 250;" xml:space="preserve">
<style type="text/css">
	.st0{fill:#FDD168;stroke:#FFE7A9;stroke-width:5;stroke-miterlimit:10;}
	.st1{display:none;}
	.st2{display:inline;fill:none;}
	.st3{display:inline;fill:#FFE7A9;}
	.st4{font-family:'Roboto-Light';}
	.st5{font-size:130px;}
	.st6{fill:#FFE7A9;stroke:#FDD168;stroke-width:3;stroke-miterlimit:10;}
</style>
<g id="Layer_1">
	<ellipse class="st0" cx="132.2" cy="122.4" rx="92.8" ry="88.7"/>
</g>
<g id="Layer_2" class="st1">
	<rect x="93.6" y="71.3" class="st2" width="118.4" height="107.4"/>
	<text transform="matrix(1 0 0 1 93.5859 168.7891)" class="st3 st4 st5">1</text>
</g>
<g id="Layer_3">
	<g>
		<path class="st6" d="M120.3,64.7c-2.7,0-5,2.3-5,5v7H70.8c-0.8,0-1.5,0.7-1.5,1.5v33.5c0,1.7,1.3,3,3,3h49v-1c0-1.7,1.3-3,3-3h16
			c1.7,0,3,1.3,3,3v1h51c1.7,0,3-1.3,3-3V78.2c0-0.8-0.7-1.5-1.5-1.5h-46.5v-7c0-2.7-2.3-5-5-5H120.3z M120.3,68.7h24
			c0.7,0,1,0.3,1,1v7h-26v-7C119.3,69,119.7,68.7,120.3,68.7z M124.3,112.7c-0.5,0-1,0.5-1,1v4c0,0.5,0.5,1,1,1h16c0.5,0,1-0.5,1-1
			v-4c0-0.5-0.5-1-1-1H124.3z M69.3,115.7v55.5c0,0.8,0.7,1.5,1.5,1.5h125c0.8,0,1.5-0.7,1.5-1.5v-55.5c-0.8,0.6-1.9,1-3,1h-51v1
			c0,1.7-1.3,3-3,3h-16c-1.7,0-3-1.3-3-3v-1h-49C71.2,116.7,70.1,116.3,69.3,115.7z"/>
	</g>
</g>
</svg>
